<svg xmlns="http://www.w3.org/2000/svg" width="287.382" height="55.066" viewBox="0 0 287.382 55.066">
  <defs>
    <style>
      .cls-1 {
        fill: #5a5454;
      }

      .cls-2 {
        fill: #b2251a;
        stroke: #fff;
      }
    </style>
  </defs>
  <g id="logo_black" transform="translate(-31.714 -239.434)">
    <path id="Caminho_1" data-name="Caminho 1" class="cls-1" d="M36.072,15.118a10.655,10.655,0,0,1-.124,2.01q-.168,1.2-.449,2.74t-.64,3.324q-.359,1.786-.708,3.751t-.64,4.043q-.292,2.078-.449,4.167-.022.157-.079.9t-.135,1.831q-.079,1.089-.168,2.426t-.157,2.707q-.067,1.37-.1,2.684t.011,2.325a2.09,2.09,0,0,1-.281,1.123,4.485,4.485,0,0,1-.741.977,4.159,4.159,0,0,1-.9.7,1.673,1.673,0,0,1-.775.258,1.784,1.784,0,0,1-.606-.124,2.369,2.369,0,0,1-.64-.359,2.07,2.07,0,0,1-.775-1.449,8.9,8.9,0,0,1,.067-1.247q.09-.887.247-2.078t.348-2.549q.191-1.359.337-2.639t.213-2.381a14.529,14.529,0,0,0,.022-1.774,1.072,1.072,0,0,0-.427-.82,1.512,1.512,0,0,0-.921-.281q-.719,0-1.9.09t-2.448.191q-1.269.1-2.459.18t-1.954.079q-.157,0-.854.034t-1.662.1q-.966.067-2.044.146t-2.033.168q-.955.09-1.64.191a4.037,4.037,0,0,0-.82.168,1.139,1.139,0,0,0-.281.55A11.111,11.111,0,0,0,9.231,38.4q-.135.663-.258,1.482T8.749,41.5q-.1.8-.168,1.527T8.49,44.25q-.045,1.325-.09,2.617a14.367,14.367,0,0,1-.247,2.3,4.34,4.34,0,0,1-.64,1.64,1.429,1.429,0,0,1-1.247.629,1.338,1.338,0,0,1-.719-.3,4.761,4.761,0,0,1-.82-.752,6.3,6.3,0,0,1-.685-.943,2.028,2.028,0,0,1-.314-.9,3.8,3.8,0,0,1,.045-.988q.09-.562.225-1.146t.27-1.123q.135-.539.2-.921Q4.784,42.9,5.11,41t.64-4.088q.314-2.19.629-4.593t.606-4.885q.292-2.482.562-4.953t.517-4.807a1.53,1.53,0,0,1,.18-.573,1.926,1.926,0,0,1,.416-.539,1.762,1.762,0,0,1,.606-.359,1.413,1.413,0,0,1,.73-.056,3.041,3.041,0,0,1,1.595.708,2.2,2.2,0,0,1,.606,1.4,13.253,13.253,0,0,1-.157,3.313q-.292,1.763-.685,3.56t-.719,3.549a14.611,14.611,0,0,0-.258,3.3.581.581,0,0,0,.314.483,2.453,2.453,0,0,0,.7.258,5.047,5.047,0,0,0,.831.112q.427.022.741.022.472,0,1.808-.045t3.1-.146q1.763-.1,3.706-.27T25.2,32a24.494,24.494,0,0,0,2.864-.55,2.466,2.466,0,0,0,1.426-.719,4,4,0,0,0,.348-1.022q.191-.775.4-1.943t.416-2.639q.2-1.471.371-3.111t.27-3.358q.1-1.718.1-3.38a1.074,1.074,0,0,1,.191-.517,2.718,2.718,0,0,1,.517-.606,3.5,3.5,0,0,1,.741-.505,1.915,1.915,0,0,1,.887-.213,2.871,2.871,0,0,1,.708.1,3.108,3.108,0,0,1,.752.3,2.024,2.024,0,0,1,.606.517A1.309,1.309,0,0,1,36.072,15.118Zm15.3,2A4.077,4.077,0,0,1,50.6,19.61a2.511,2.511,0,0,1-2.179,1.033,8.474,8.474,0,0,1-2-.27q-1.078-.27-1.078-.876a3.657,3.657,0,0,1,.685-2.1,5.889,5.889,0,0,1,1.651-1.628A2.811,2.811,0,0,1,48.7,15.32a4.517,4.517,0,0,1,1.977.348A1.458,1.458,0,0,1,51.368,17.117ZM66.08,35.378a2.677,2.677,0,0,1-.416,1.28,16.1,16.1,0,0,1-1.19,1.831q-.752,1.022-1.752,2.19t-2.1,2.336q-1.258,1.348-2.662,2.594t-3,2.415a9.837,9.837,0,0,1-5.615,2.336,5.175,5.175,0,0,1-4.223-1.819,10.152,10.152,0,0,1-2.044-4.447,25.99,25.99,0,0,1-.539-5.323q0-1.146.27-3.571.135-1.213.27-2.089a11.452,11.452,0,0,1,.292-1.415A3.647,3.647,0,0,1,44.7,29.853a3.4,3.4,0,0,1,2.156-.831q.606,0,.606,1.146a11.7,11.7,0,0,1-.146,1.729q-.146.966-.3,1.909-.292,1.774-.427,3.178t-.135,2.437A17.409,17.409,0,0,0,47.078,44q.629,2.358,2.269,2.358a8.264,8.264,0,0,0,3.863-1.213q1.1-.629,2.2-1.393a27.329,27.329,0,0,0,2.2-1.707q1.123-.943,2.156-1.9t2.021-1.965q.988-1.011,1.774-1.887t1.37-1.617q.022-.045.079-.146t.124-.2a1.1,1.1,0,0,1,.135-.168.128.128,0,0,1,.135-.045q.314,0,.472.494A2.065,2.065,0,0,1,66.08,35.378Zm20.3-1.617a1.927,1.927,0,0,1-.2.8,5.661,5.661,0,0,1-.539.91,11.833,11.833,0,0,1-.764.955q-.427.483-.854.955-.337.382-.719.775t-.865.876q-.483.483-1.134,1.123t-1.527,1.494q-.786.764-1.741,1.606T76.109,44.9q-.977.809-1.9,1.55t-1.595,1.3q-1.617,1.325-3.077,2.5t-2.875,2.123q-2.808,1.887-4.447,1.887a3.63,3.63,0,0,1-1.3-.292q-.764-.292-.764-.809a2.712,2.712,0,0,1,1.1-2.291,16.341,16.341,0,0,1,3.369-1.707,14.867,14.867,0,0,0,3.369-1.752,2.775,2.775,0,0,0,1.123-2.336,7.759,7.759,0,0,0-1.55-3.01q-.764-1.146-1.359-2.1t-1.022-1.718a6.825,6.825,0,0,1-.854-3.3,9.9,9.9,0,0,1,.562-3.167,7.483,7.483,0,0,1,.865-1.9,11.329,11.329,0,0,1,1.292-1.707,7.029,7.029,0,0,1,1.415-1.2,2.285,2.285,0,0,1,1.258-.427q1.977,0,1.977,2.336a2.861,2.861,0,0,1-.651,1.752,8.359,8.359,0,0,1-.764.842q-.449.438-1.033.932-.562.472-.955.831t-.64.606a6.777,6.777,0,0,0,.719,2.74q.382.764.876,1.662t1.146,1.932q.651,1.033,1.1,1.853t.674,1.2q.022.09.247.09a2.705,2.705,0,0,0,1.089-.46q.775-.46,1.842-1.235t2.325-1.8q1.258-1.022,2.516-2.167,1.3-1.168,2.156-2.044t1.617-1.64q.764-.764,1.134-1.179a2.189,2.189,0,0,1,.416-.416.509.509,0,0,1,.337.135,1.33,1.33,0,0,1,.281.348,1.978,1.978,0,0,1,.191.449A1.6,1.6,0,0,1,86.385,33.761Zm19.384-3.549a1.693,1.693,0,0,1-.449,1.269,5.176,5.176,0,0,1-1.033.775,12.743,12.743,0,0,1-1.651.606q-.91.27-1.864.483t-1.92.359q-.966.146-1.842.236-.943.09-2,.18t-2.044.191q-.988.1-1.831.236a6.757,6.757,0,0,0-1.359.337q-.472,2.044-1,3.9t-.887,3.695q-.09.427-.236,1.28t-.281,1.786q-.135.932-.236,1.752a10.973,10.973,0,0,0-.1,1.179,2.616,2.616,0,0,0,.292,1.381,3.011,3.011,0,0,0,.64.741q.348.281.64.528a.917.917,0,0,1,.292.741.847.847,0,0,1-.3.606,3.176,3.176,0,0,1-.73.517,4.158,4.158,0,0,1-.91.348,3.464,3.464,0,0,1-.842.124,2,2,0,0,1-1.168-.359,3.17,3.17,0,0,1-.876-.932,4.865,4.865,0,0,1-.562-1.314,5.779,5.779,0,0,1-.2-1.527,14.729,14.729,0,0,1,.18-2.212q.18-1.179.449-2.415t.573-2.527q.3-1.292.573-2.572.112-.539.236-1.112t.225-1.078l.168-.842a3.362,3.362,0,0,0,.067-.4.643.643,0,0,0-.258-.55,1.01,1.01,0,0,0-.618-.191q-.27,0-.809.045t-1.134.112q-.6.067-1.134.112t-.786.045a7.887,7.887,0,0,1-1.37-.1,2.06,2.06,0,0,1-.91-.371,1.58,1.58,0,0,1-.517-.752,3.854,3.854,0,0,1-.168-1.247.554.554,0,0,1,.292-.494,2.077,2.077,0,0,1,.708-.258,5.474,5.474,0,0,1,.887-.09q.472-.011.831-.011.292,0,.955-.056t1.393-.124q.73-.067,1.393-.124t.955-.056a2.576,2.576,0,0,0,.314-.022,1.081,1.081,0,0,0,.371-.124.986.986,0,0,0,.348-.337,2.239,2.239,0,0,0,.27-.663q.157-.7.382-1.628l.46-1.909q.236-.977.46-1.887t.382-1.561a12.607,12.607,0,0,0,.348-1.348q.146-.719.27-1.437t.281-1.393a7.03,7.03,0,0,1,.4-1.235,1.662,1.662,0,0,1,1.595-1.168q1.662,0,1.662,1.842a8.445,8.445,0,0,1-.494,2.628q-1.078,3.414-1.595,5.626a16.4,16.4,0,0,0-.517,2.976.735.735,0,0,0,.831.831q1.011,0,1.9-.034t1.8-.112q.91-.079,1.92-.191t2.269-.247q.9-.112,1.718-.27t1.516-.3q.7-.146,1.235-.281a7.858,7.858,0,0,1,.9-.18q.247-.022.483-.067a1.068,1.068,0,0,1,.4-.011.417.417,0,0,1,.27.18A.875.875,0,0,1,105.769,30.212Zm24.527-.022a1.638,1.638,0,0,1-.27.831,5.563,5.563,0,0,1-.7.91,9.366,9.366,0,0,1-.966.9q-.539.438-1.078.809t-1.022.651a7.723,7.723,0,0,1-.8.416,8.156,8.156,0,0,1-1.539.438q-.955.191-1.988.326t-2.021.213q-.988.079-1.662.079a4.219,4.219,0,0,1-.741-.09q-.472-.09-.966-.225a9.724,9.724,0,0,1-.932-.3,2.141,2.141,0,0,1-.64-.348q.2.854.359,1.718a9.964,9.964,0,0,1,.157,1.786,5.954,5.954,0,0,1-.1.988,11.585,11.585,0,0,1-.27,1.179q-.168.6-.371,1.146a4.957,4.957,0,0,1-.427.91,18.267,18.267,0,0,1-1.2,1.8,10.49,10.49,0,0,1-1.393,1.494,13.293,13.293,0,0,1-1.741,1.292,17.951,17.951,0,0,1-2.224,1.168,11.924,11.924,0,0,1-2.707.82,16.461,16.461,0,0,1-2.819.236,2.661,2.661,0,0,1-1.64-.539,4.4,4.4,0,0,1-1.213-1.449,7.883,7.883,0,0,1-.752-2.1,11.73,11.73,0,0,1-.258-2.493,7.571,7.571,0,0,1,.056-.831q.056-.494.157-1.011t.213-.988q.112-.472.225-.809a18.71,18.71,0,0,1,.9-2.156,27.212,27.212,0,0,1,3.122-4.975,18.433,18.433,0,0,1,2.021-2.19,9.995,9.995,0,0,1,2.2-1.55,5.005,5.005,0,0,1,2.291-.584,1.446,1.446,0,0,1,.618.112,1.333,1.333,0,0,1,.4.292,2.951,2.951,0,0,1,.3.382,3.7,3.7,0,0,0,.314.4.221.221,0,0,0,.2.112,1.478,1.478,0,0,0,.449-.09,1.912,1.912,0,0,1,.606-.09,1.789,1.789,0,0,1,1.056.55q.629.55,1.314,1.213t1.37,1.213a2.058,2.058,0,0,0,1.224.55q.606,0,1.3-.022t1.415-.079q.719-.056,1.415-.146t1.28-.2q.157-.045.741-.2t1.359-.371q.775-.213,1.64-.46l1.606-.46q.741-.213,1.224-.348t.528-.135a.471.471,0,0,1,.247.067A.264.264,0,0,1,130.3,30.189Zm-17.52,3.594a2.268,2.268,0,0,0-.528-.876,4.941,4.941,0,0,0-.9-.764,5.333,5.333,0,0,0-1.067-.55,2.979,2.979,0,0,0-1.056-.213,2.345,2.345,0,0,0-.786.135,4.527,4.527,0,0,0-.752.348,6.456,6.456,0,0,0-.708.472l-.629.483a8.194,8.194,0,0,0-1.673,2.078,18.924,18.924,0,0,0-1.393,2.875,23.264,23.264,0,0,0-.955,3.066,11.807,11.807,0,0,0-.359,2.65,2.757,2.757,0,0,0,.168.955,2.447,2.447,0,0,0,.483.809,2.489,2.489,0,0,0,.741.562,2.08,2.08,0,0,0,.943.213,6.353,6.353,0,0,0,2.493-.483,7.321,7.321,0,0,0,2.078-1.325,9.147,9.147,0,0,0,1.651-2.01,13.811,13.811,0,0,0,1.213-2.527,16.56,16.56,0,0,0,.752-2.864A19.6,19.6,0,0,0,112.776,33.783Zm34.882-2.853a2.555,2.555,0,0,1-.236,1.056,2.194,2.194,0,0,1-.528.7,2.014,2.014,0,0,1-.7.393,2.4,2.4,0,0,1-.741.124,3.1,3.1,0,0,1-.752-.112,4.46,4.46,0,0,0-.887-.135,5.9,5.9,0,0,0-2.1.483,17.3,17.3,0,0,0-2.5,1.247,24.52,24.52,0,0,0-2.493,1.707,15.88,15.88,0,0,0-2.044,1.864q-.449.517-.955,1.146t-.977,1.325a13.8,13.8,0,0,0-.842,1.415,6.053,6.053,0,0,0-.528,1.393,3.164,3.164,0,0,0-.067.887q.022.528.09,1.146t.146,1.28a10.781,10.781,0,0,1,.079,1.269q0,.359-.011.685a3.24,3.24,0,0,1-.079.618,1.054,1.054,0,0,1-.247.438,2.578,2.578,0,0,1-.494.438,3.5,3.5,0,0,1-.64.348,1.714,1.714,0,0,1-.663.146,1.111,1.111,0,0,1-.876-.539,4.328,4.328,0,0,1-.584-1.415,12.676,12.676,0,0,1-.314-2.123q-.09-1.224-.09-2.662,0-.427.022-1.258t.056-1.7q.034-.865.067-1.561t.034-.854q.022-.382.056-1.033t.09-1.426q.056-.775.135-1.583t.168-1.482q.045-.27.09-.786t.1-1.067q.056-.55.124-1.056a6.244,6.244,0,0,1,.135-.752,2.15,2.15,0,0,1,.3-.629,4.411,4.411,0,0,1,.573-.7,3.508,3.508,0,0,1,.752-.573,1.728,1.728,0,0,1,.865-.236,1.761,1.761,0,0,1,.775.191,1.528,1.528,0,0,1,.483.4,1.394,1.394,0,0,1,.247.494,1.848,1.848,0,0,1,.067.46,2.342,2.342,0,0,1-.079.438q-.079.326-.213.764t-.281.943q-.146.505-.27.955t-.213.809a2.477,2.477,0,0,0-.09.494q0,.18-.056.685t-.112,1.157q-.056.651-.112,1.359t-.056,1.247V38.1a1.779,1.779,0,0,0,.022.292q.831-1.033,1.831-2.156t2.123-2.212q1.123-1.089,2.336-2.078a21.436,21.436,0,0,1,2.459-1.741,13.477,13.477,0,0,1,2.493-1.19,7.326,7.326,0,0,1,2.437-.438,2.663,2.663,0,0,1,1.179.292,3.087,3.087,0,0,1,.842.64,2.6,2.6,0,0,1,.494.752,1.77,1.77,0,0,1,.157.651Zm12.78-13.813a4.077,4.077,0,0,1-.764,2.493,2.511,2.511,0,0,1-2.179,1.033,8.474,8.474,0,0,1-2-.27q-1.078-.27-1.078-.876a3.657,3.657,0,0,1,.685-2.1,5.889,5.889,0,0,1,1.651-1.628,2.811,2.811,0,0,1,1.011-.449,4.517,4.517,0,0,1,1.977.348A1.458,1.458,0,0,1,160.438,17.117ZM175.15,35.378a2.677,2.677,0,0,1-.416,1.28,16.1,16.1,0,0,1-1.19,1.831q-.752,1.022-1.752,2.19t-2.1,2.336q-1.258,1.348-2.662,2.594t-3,2.415a9.837,9.837,0,0,1-5.615,2.336,5.175,5.175,0,0,1-4.223-1.819,10.152,10.152,0,0,1-2.044-4.447,25.99,25.99,0,0,1-.539-5.323q0-1.146.27-3.571.135-1.213.27-2.089a11.452,11.452,0,0,1,.292-1.415,3.647,3.647,0,0,1,1.325-1.842,3.4,3.4,0,0,1,2.156-.831q.606,0,.606,1.146a11.7,11.7,0,0,1-.146,1.729q-.146.966-.3,1.909-.292,1.774-.427,3.178t-.135,2.437A17.409,17.409,0,0,0,156.148,44q.629,2.358,2.269,2.358a8.264,8.264,0,0,0,3.863-1.213q1.1-.629,2.2-1.393a27.329,27.329,0,0,0,2.2-1.707q1.123-.943,2.156-1.9t2.021-1.965q.988-1.011,1.774-1.887T174,34.682q.022-.045.079-.146t.124-.2a1.1,1.1,0,0,1,.135-.168.128.128,0,0,1,.135-.045q.314,0,.472.494A2.065,2.065,0,0,1,175.15,35.378Zm25.066-.831a2.132,2.132,0,0,1-.584,1.46,7.581,7.581,0,0,1-.629.6q-.427.371-.764.708l-2.066,2.066q-.584.584-1.089,1.044t-.887.8l-1.561,1.292q-.91.752-2.1,1.741a40.941,40.941,0,0,1-4.312,3.167,19.583,19.583,0,0,1-4.234,1.943,15.417,15.417,0,0,1-4.773.73,5.954,5.954,0,0,1-2.774-.539,6.1,6.1,0,0,1-2.066-1.583,6.914,6.914,0,0,1-1.28-2.347,8.744,8.744,0,0,1-.416-2.853,15.175,15.175,0,0,1,1.269-5.975,29.788,29.788,0,0,1,3.38-5.885,18.6,18.6,0,0,1,2.763-2.92,4.641,4.641,0,0,1,2.9-1.393q.7,0,1.595,1.168a14.014,14.014,0,0,1,.854,1.247,13.1,13.1,0,0,1,.741,1.4,5.955,5.955,0,0,1,.674,2.111,4.886,4.886,0,0,1-.4,1.685q-.4,1.033-.966,1.033-.809,0-1.348-1.1a7.45,7.45,0,0,1-.393-.955q-.124-.393-.281-.842a12.666,12.666,0,0,0-.876-1.932,4.074,4.074,0,0,0-2.471,1.46,13.621,13.621,0,0,0-.977,1.4q-.505.82-1.067,1.853a13.766,13.766,0,0,0-.831,1.819,19.137,19.137,0,0,0-.651,2.078,21.511,21.511,0,0,0-.427,2.134A13.687,13.687,0,0,0,174,43.149a3.768,3.768,0,0,0,1.123,2.538,3.4,3.4,0,0,0,2.471,1.19,14.844,14.844,0,0,0,5.458-1.011,23.248,23.248,0,0,0,4.964-2.7,47.56,47.56,0,0,0,4.784-3.841q1.213-1.1,2.3-2.078t2.078-1.875A4.654,4.654,0,0,1,199.9,33.94Q200.217,33.94,200.217,34.547Zm8.176-2.224a1.007,1.007,0,0,0-.168-.505,2.81,2.81,0,0,0-.427-.539,2.7,2.7,0,0,0-.573-.438,1.19,1.19,0,0,0-.584-.18,3.629,3.629,0,0,0-1.292.225,5.382,5.382,0,0,0-1.112.573,6.06,6.06,0,0,0-.955.8,9.2,9.2,0,0,0-.775.9,20.306,20.306,0,0,0-1.651,2.527,29.616,29.616,0,0,0-1.527,3.133,26.822,26.822,0,0,0-1.123,3.234,10.841,10.841,0,0,0-.438,2.83,1.342,1.342,0,0,0,.562,1.078,2.34,2.34,0,0,0,1.5.449,2.521,2.521,0,0,0,1.292-.483,10.2,10.2,0,0,0,1.572-1.28,18.508,18.508,0,0,0,1.617-1.808,16.178,16.178,0,0,0,1.4-2.089,28.177,28.177,0,0,0,1.909-4.077A12.376,12.376,0,0,0,208.393,32.323Zm18.261-1.033a5.412,5.412,0,0,1-.326,1.123q-.326.921-.943,2.235t-1.5,2.886a29.177,29.177,0,0,1-1.988,3.055,30.665,30.665,0,0,1-2.673,3.212,22.306,22.306,0,0,1-2.527,2.28,12,12,0,0,1-2.212,1.37,4.355,4.355,0,0,1-1.752.46,4.862,4.862,0,0,1-2-.348,3.062,3.062,0,0,1-1.258-1.056,5.88,5.88,0,0,1-.8-1.8q-.3-1.089-.6-2.572h-.314q-.943,1.437-2.055,2.841A22.163,22.163,0,0,1,203.4,47.5a12.529,12.529,0,0,1-2.471,1.808,5.179,5.179,0,0,1-2.5.7,4.394,4.394,0,0,1-1.37-.236,3.912,3.912,0,0,1-1.325-.752,4.073,4.073,0,0,1-1.415-3.234,11.961,11.961,0,0,1,.247-2.257,25.529,25.529,0,0,1,.674-2.65q.427-1.381.977-2.785t1.168-2.662q.618-1.258,1.247-2.28a9.665,9.665,0,0,1,1.213-1.628,16.168,16.168,0,0,1,1.583-1.46,13.443,13.443,0,0,1,2.01-1.348,12.755,12.755,0,0,1,2.358-1,8.835,8.835,0,0,1,2.65-.393,1.992,1.992,0,0,1,1.685.73,4.836,4.836,0,0,1,.786,2.212.723.723,0,0,0,.168.314q.146.18.314.4a4.433,4.433,0,0,1,.3.46.962.962,0,0,1,.135.483,3.216,3.216,0,0,1-.157.887q-.157.528-.348,1.19t-.348,1.438a8.175,8.175,0,0,0-.157,1.628q0,1.168.022,2.493a12.805,12.805,0,0,0,.258,2.437,4.706,4.706,0,0,0,.786,1.853,1.876,1.876,0,0,0,1.606.741,2.642,2.642,0,0,0,1.292-.449,11.28,11.28,0,0,0,1.662-1.258,23.422,23.422,0,0,0,1.909-1.932q1-1.123,2.055-2.471a28.892,28.892,0,0,0,2.111-3.066q.9-1.516,1.572-2.7t1.146-1.909q.472-.73.809-.73h.022a.558.558,0,0,1,.494.225,1.056,1.056,0,0,1,.112.517v.225A1.513,1.513,0,0,1,226.653,31.29Zm15.453,9.658a2.205,2.205,0,0,1-.213.775,8.825,8.825,0,0,1-.539,1.056q-.326.55-.674,1.089t-.618.9a18.137,18.137,0,0,1-2.078,2.257,19.857,19.857,0,0,1-2.459,1.943,13.754,13.754,0,0,1-2.594,1.37,6.844,6.844,0,0,1-2.5.517,6.437,6.437,0,0,1-3.133-.719,5.734,5.734,0,0,1-2.156-2.1,10.442,10.442,0,0,1-1.247-3.414,23.929,23.929,0,0,1-.4-4.638q0-1.617.135-3.538T224,32.469q.247-2.055.584-4.144t.741-4.021q.4-1.932.854-3.6a28.917,28.917,0,0,1,.932-2.92,10.209,10.209,0,0,1,.966-1.965q.483-.719.932-.719a1.19,1.19,0,0,1,.932.46,4.481,4.481,0,0,1,.64.977q-.247,2.156-.932,5.278t-1.628,7.367q-.27,1.19-.46,2.459t-.314,2.549q-.124,1.28-.191,2.527t-.067,2.347a14.159,14.159,0,0,0,1.022,6.031,3.544,3.544,0,0,0,3.448,2.1,6.2,6.2,0,0,0,2.269-.438,11.062,11.062,0,0,0,2.145-1.123,17.949,17.949,0,0,0,1.943-1.5q.921-.82,1.707-1.606.247-.247.6-.629t.674-.73q.326-.348.6-.606t.359-.258Q242.106,40.3,242.106,40.948Z" transform="translate(28 226)"/>
    <path id="Caminho_2" data-name="Caminho 2" class="cls-2" d="M1.887,9.636H17.9v7.277H11.343v6.9h5.84v6.918h-5.84V46H1.887Zm35.709,0V46H28.522V26.5a34.256,34.256,0,0,0-.2-5.076,1.9,1.9,0,0,0-1.112-1.292,11.53,11.53,0,0,0-4.054-.438h-.9v-4.24a16.494,16.494,0,0,0,10-5.823Z" transform="translate(281 248)"/>
  </g>
</svg>
